{"accessors" : [{"bufferView" : 0, "byteOffset" : 0, "componentType" : 5123, "count" : 5904, "type" : "SCALAR", "max" : [5125], "min" : [0]}, {"bufferView" : 1, "byteOffset" : 0, "componentType" : 5126, "count" : 5126, "type" : "VEC3", "max" : [6.498899936676025, 0.5419999957084656, 105.51840209960938], "min" : [-31.592300415039062, -1.9610999822616577, -1.656599998474121], "name" : "POSITION"}, {"bufferView" : 1, "byteOffset" : 12, "componentType" : 5126, "count" : 5126, "type" : "VEC2", "max" : [0.9919999837875366, 0.9847000241279602], "min" : [0.007899999618530273, 0.007600009441375732], "name" : "TEXCOORD_0"}, {"bufferView" : 1, "byteOffset" : 20, "componentType" : 5126, "count" : 5126, "type" : "VEC3", "max" : [1.0000044107437134, 1.0000044107437134, 1.0000044107437134], "min" : [-1.0000044107437134, -1.0000044107437134, -1.0000044107437134], "name" : "NORMAL"}], "asset" : {"generator" : "Aspose.3D 24.1.0", "version" : "2.0"}, "buffers" : [{"uri" : "data:application/octet-stream;base64,", "byteLength" : 200744}], "bufferViews" : [{"buffer" : 0, "byteOffset" : 0, "byteLength" : 11808, "target" : 34963}, {"buffer" : 0, "byteOffset" : 11812, "byteLength" : 188928, "byteStride" : 32, "target" : 34962}], "meshes" : [{"primitives" : [{"attributes" : {"POSITION" : 1, "TEXCOORD_0" : 2, "NORMAL" : 3}, "indices" : 0, "mode" : 4}], "name" : ""}], "nodes" : [{"mesh" : 0, "name" : "10509_Golf_Club___Putter_v01_SG"}], "scene" : 0, "scenes" : [{"nodes" : [0]}]}